<?xml version="1.0" encoding="UTF-8" standalone="no"?>
<!-- Created with Inkscape (http://www.inkscape.org/) -->

<svg
   xmlns:dc="http://purl.org/dc/elements/1.1/"
   xmlns:cc="http://creativecommons.org/ns#"
   xmlns:rdf="http://www.w3.org/1999/02/22-rdf-syntax-ns#"
   xmlns:svg="http://www.w3.org/2000/svg"
   xmlns="http://www.w3.org/2000/svg"
   xmlns:sodipodi="http://sodipodi.sourceforge.net/DTD/sodipodi-0.dtd"
   xmlns:inkscape="http://www.inkscape.org/namespaces/inkscape"
   width="82"
   height="49"
   id="svg2"
   version="1.1"
   inkscape:version="0.47 r22583"
   sodipodi:docname="blard.svg">
  <defs
     id="defs4">
    <inkscape:perspective
       sodipodi:type="inkscape:persp3d"
       inkscape:vp_x="0 : 526.18109 : 1"
       inkscape:vp_y="0 : 1000 : 0"
       inkscape:vp_z="744.09448 : 526.18109 : 1"
       inkscape:persp3d-origin="372.04724 : 350.78739 : 1"
       id="perspective10" />
  </defs>
  <sodipodi:namedview
     id="base"
     pagecolor="#84caff"
     bordercolor="#666666"
     borderopacity="1.0"
     inkscape:pageopacity="0"
     inkscape:pageshadow="2"
     inkscape:zoom="1"
     inkscape:cx="51.537608"
     inkscape:cy="21.411898"
     inkscape:document-units="px"
     inkscape:current-layer="layer1"
     showgrid="false"
     inkscape:window-width="1023"
     inkscape:window-height="580"
     inkscape:window-x="0"
     inkscape:window-y="19"
     inkscape:window-maximized="0">
    <inkscape:grid
       type="xygrid"
       id="grid2816"
       empspacing="5"
       visible="true"
       enabled="true"
       snapvisiblegridlinesonly="true" />
  </sodipodi:namedview>
  <metadata
     id="metadata7">
    <rdf:RDF>
      <cc:Work
         rdf:about="">
        <dc:format>image/svg+xml</dc:format>
        <dc:type
           rdf:resource="http://purl.org/dc/dcmitype/StillImage" />
        <dc:title></dc:title>
      </cc:Work>
    </rdf:RDF>
  </metadata>
  <g
     inkscape:label="Layer 1"
     inkscape:groupmode="layer"
     id="layer1"
     transform="translate(-217.0625,-745.375)">
    <path
       style="font-size:medium;font-style:normal;font-variant:normal;font-weight:normal;font-stretch:normal;text-indent:0;text-align:start;text-decoration:none;line-height:normal;letter-spacing:normal;word-spacing:normal;text-transform:none;direction:ltr;block-progression:tb;writing-mode:lr-tb;text-anchor:start;color:#000000;fill:#f1a3da;fill-opacity:1;fill-rule:nonzero;stroke:none;stroke-width:0;marker:none;visibility:visible;display:inline;overflow:visible;enable-background:accumulate;font-family:Bitstream Vera Sans;-inkscape-font-specification:Bitstream Vera Sans"
       d="m 247,745.375 c -7.72141,0 -14,6.27859 -14,14 l 0,21 c 0,7.72141 6.27859,14 14,14 l 11,0 c 7.72141,0 14,-6.27859 14,-14 l 0,-21 c 0,-7.72141 -6.27859,-14 -14,-14 l -11,0 z"
       id="rect3020"
       sodipodi:nodetypes="ccccccccc" />
    <rect
       style="fill:#f38fb3;fill-opacity:1;stroke:none"
       id="rect3594"
       width="35"
       height="44.999996"
       x="235"
       y="747.36218"
       rx="12"
       ry="12" />
    <path
       sodipodi:type="arc"
       style="fill:#ffbdc3;fill-opacity:1;stroke:none"
       id="path3604"
       sodipodi:cx="247.5"
       sodipodi:cy="202.5"
       sodipodi:rx="5"
       sodipodi:ry="5"
       d="m 252.5,202.5 a 5,5 0 1 1 -10,0 5,5 0 1 1 10,0 z"
       transform="translate(-2.5,564.86218)" />
    <path
       transform="translate(-2.5,564.86218)"
       d="m 250.5,202.5 a 3,3 0 1 1 -6,0 3,3 0 1 1 6,0 z"
       sodipodi:ry="3"
       sodipodi:rx="3"
       sodipodi:cy="202.5"
       sodipodi:cx="247.5"
       id="path3606"
       style="fill:#ffffff;fill-opacity:1;stroke:none"
       sodipodi:type="arc" />
    <path
       style="font-size:medium;font-style:normal;font-variant:normal;font-weight:normal;font-stretch:normal;text-indent:0;text-align:start;text-decoration:none;line-height:normal;letter-spacing:normal;word-spacing:normal;text-transform:none;direction:ltr;block-progression:tb;writing-mode:lr-tb;text-anchor:start;color:#000000;fill:#ffb07a;fill-opacity:1;fill-rule:nonzero;stroke:none;stroke-width:4;marker:none;visibility:visible;display:inline;overflow:visible;enable-background:accumulate;font-family:Bitstream Vera Sans;-inkscape-font-specification:Bitstream Vera Sans"
       d="m 235,760.89348 -2.75,1.125 -1.375,0.5625 -0.0313,0 -5.90625,2.46875 -6,2.5 -0.0937,0.0313 0,0.0313 c -1.24323,0.52327 -1.78125,1.74678 -1.78125,2.75 0,1.00322 0.53802,2.22673 1.78125,2.75 l 0,0.0313 0.0937,0.0313 6.125,2.5625 5.78125,2.40625 0.0313,0 1.375,0.5625 2.75,1.125 0,-18.9375 0,-2e-4 z"
       id="path3811"
       sodipodi:nodetypes="ccccccccscccccccccc" />
    <path
       style="font-size:medium;font-style:normal;font-variant:normal;font-weight:normal;font-stretch:normal;text-indent:0;text-align:start;text-decoration:none;line-height:normal;letter-spacing:normal;word-spacing:normal;text-transform:none;direction:ltr;block-progression:tb;writing-mode:lr-tb;text-anchor:start;color:#000000;fill:#ee946b;fill-opacity:1;fill-rule:nonzero;stroke:none;stroke-width:2;marker:none;visibility:visible;display:inline;overflow:visible;enable-background:accumulate;font-family:Bitstream Vera Sans;-inkscape-font-specification:Bitstream Vera Sans"
       d="m 233,763.86223 -13.375,5.5625 c -0.75944,0.28213 -0.75944,1.59287 0,1.875 l 13.375,5.5625 0,-13 z"
       id="path3798"
       sodipodi:nodetypes="ccccc" />
    <g
       id="g3615"
       transform="matrix(-1,0,0,1,538.99,7.9997704)"
       inkscape:transform-center-x="-14.995026"
       inkscape:transform-center-y="-9.9835477">
      <path
         sodipodi:nodetypes="cccccsccccscccc"
         id="path3609"
         d="m 249.625,745.375 c -1.71748,0.14908 -3.06158,1.30466 -3.5,2.96875 l 0,0.0313 c -0.43052,1.67901 0.18343,3.3501 1.625,4.3125 l 30,20 c 1.24779,0.84857 2.79167,0.92543 4.125,0.21875 1.33333,-0.70666 2.12671,-2.02225 2.125,-3.53125 l 0,-20 c -2.2e-4,-2.26014 -1.73986,-3.99978 -4,-4 l -29.90625,0 c -0.0316,-0.002 -0.0621,7.6e-4 -0.0937,0 -0.0948,-0.002 -0.18646,-0.005 -0.28125,0 l -0.0313,0 -0.0625,0 0,-5e-5 z"
         style="font-size:medium;font-style:normal;font-variant:normal;font-weight:normal;font-stretch:normal;text-indent:0;text-align:start;text-decoration:none;line-height:normal;letter-spacing:normal;word-spacing:normal;text-transform:none;direction:ltr;block-progression:tb;writing-mode:lr-tb;text-anchor:start;color:#000000;fill:#ffa5a5;fill-opacity:1;fill-rule:nonzero;stroke:none;stroke-width:4;marker:none;visibility:visible;display:inline;overflow:visible;enable-background:accumulate;font-family:Bitstream Vera Sans;-inkscape-font-specification:Bitstream Vera Sans" />
      <path
         sodipodi:nodetypes="csccsccccc"
         id="path2830"
         d="m 249.8125,747.36261 c -0.8191,0.0711 -1.56023,0.69948 -1.76444,1.4959 -0.20421,0.79642 0.14314,1.70384 0.82694,2.16035 l 30,20 c 0.59795,0.40664 1.42255,0.45199 2.06148,0.11335 0.63893,-0.33863 1.06434,-1.04648 1.06352,-1.7696 l 0,-20 c -10e-5,-1.04717 -0.95283,-1.9999 -2,-2 l -30,0 c -0.0625,-0.003 -0.12505,-0.003 -0.1875,0 z"
         style="font-size:medium;font-style:normal;font-variant:normal;font-weight:normal;font-stretch:normal;text-indent:0;text-align:start;text-decoration:none;line-height:normal;letter-spacing:normal;word-spacing:normal;text-transform:none;direction:ltr;block-progression:tb;writing-mode:lr-tb;text-anchor:start;color:#000000;fill:#e39494;fill-opacity:1;stroke:none;stroke-width:4;marker:none;visibility:visible;display:inline;overflow:visible;enable-background:accumulate;font-family:Bitstream Vera Sans;-inkscape-font-specification:Bitstream Vera Sans" />
    </g>
  </g>
</svg>
